<svg width="128" height="128" viewBox="0 0 128 128" fill="none" xmlns="http://www.w3.org/2000/svg">
<path fill-rule="evenodd" clip-rule="evenodd" d="M53.9773 17.925C53.3869 17.0876 52.7418 16.1644 52.04 15.15C48.98 10.71 39.33 -1.79001 34.45 0.799993C28.3385 4.03022 27.7405 23.2146 27.7321 30.3281C24.4156 34.4319 22.1493 39.2307 21.3 44.1C21.1866 44.7518 21.0873 45.4054 21.0043 46.0598L15.83 45.04C15.01 44.86 14.17 45.42 14.01 46.26C13.84 47.1 14.39 47.92 15.23 48.08L20.7403 49.1593C20.6989 50.1725 20.7042 51.1832 20.7639 52.1871L15.1 52.93C14.25 53.05 13.65 53.82 13.77 54.67C13.87 55.45 14.53 56.02 15.3 56.02C15.38 56.02 15.44 56.02 15.51 56L21.1298 55.2629C21.3383 56.4058 21.6306 57.5339 22.0186 58.6404L17.33 59.98C16.5 60.22 16.02 61.07 16.26 61.89C16.46 62.58 17.08 63.02 17.75 63.02C17.89 63.02 18.03 63 18.18 62.96L23.2722 61.5051C24.3471 63.5271 25.8058 65.4504 27.73 67.23C31.0533 70.2983 35.2001 72.7164 39.6363 74.4353C39.6707 75.7912 39.7169 77.1446 39.7629 78.4929C39.8096 79.8615 39.8561 81.2247 39.89 82.58C39.9136 83.4373 39.9944 84.2899 40.0747 85.1367C40.1985 86.4433 40.321 87.7358 40.23 89.01C40.2042 89.499 40.2365 90.0045 40.268 90.5L40.2681 90.5003C40.2856 90.7748 40.3029 91.0462 40.31 91.31C40.3305 92.2324 40.3536 93.1521 40.3767 94.0692L40.3767 94.07C40.3986 94.9424 40.4205 95.8124 40.44 96.68C40.4507 97.1032 40.4655 97.5278 40.4803 97.9527C40.5348 99.5156 40.5894 101.083 40.44 102.6C40.4052 102.956 40.3593 103.342 40.3108 103.75C39.9542 106.748 39.4573 110.926 42.23 112.88C43.77 113.96 45.88 114.1 47.73 114.03C49.27 113.98 51 113.76 52.13 112.76C53.04 111.979 53.0206 110.665 53.0037 109.526C53.0023 109.426 53.0008 109.327 53 109.23C52.9914 108.448 52.95 107.666 52.9085 106.882L52.9085 106.882C52.8528 105.832 52.7971 104.779 52.82 103.72C52.86 102.16 52.89 100.55 52.88 98.97C52.8786 98.8547 52.8728 98.7248 52.8667 98.5858C52.829 97.7361 52.7763 96.5464 53.61 96.28C53.8543 96.1986 54.3999 96.2048 54.8089 96.2095H54.8091C54.9525 96.2111 55.0791 96.2126 55.17 96.21C55.68 96.18 56.29 96.23 56.73 96.55C57.8431 97.3282 57.753 99.0186 57.6927 100.149L57.69 100.2C57.6325 101.161 57.6127 102.14 57.5929 103.122C57.5508 105.213 57.5083 107.316 57.1 109.29C56.15 113.91 59.19 115.02 63.73 115.22C65.49 115.29 67.41 114.54 68.4 113.18C69.1041 112.23 69.0337 111.093 68.962 109.933C68.9054 109.019 68.8479 108.09 69.17 107.23C69.77 105.66 71.23 104.65 72.81 104.04L72.915 104C75.5056 103.015 76.0901 102.792 76.85 99.96C77.39 97.89 78.63 96.01 80.38 94.77C81.51 93.96 84.85 92.23 85.95 94.11C86.5249 95.0803 85.6471 95.8649 84.977 96.4639C84.9012 96.5316 84.8281 96.597 84.76 96.66C84.1 97.25 83.41 97.94 83 98.72C82.09 100.45 81.41 102.1 81.38 104.08C81.35 105.53 80.74 106.48 79.29 106.71C78.9106 106.773 78.5242 106.754 78.1386 106.734H78.1386C77.7315 106.714 77.3255 106.693 76.93 106.77C75.36 107.07 73.68 107.7 73.12 109.37C72.59 110.92 72.96 113.56 74.91 113.84C76.5576 114.069 78.3962 113.976 80.1436 113.888L80.1444 113.888C80.7618 113.856 81.3678 113.826 81.95 113.81C84.75 113.73 87.56 113.49 90.32 113.07L90.5178 113.04C95.5886 112.273 100.446 111.538 102.908 107.287C104.411 107.904 105.605 108.935 105.7 110.8C105.93 115.36 100.45 118.29 96.71 119.03C93.5506 119.66 90.35 119.623 87.1488 119.586H87.1487L87.1476 119.586C86.1847 119.574 85.2218 119.563 84.26 119.57C82.8949 119.584 81.535 119.573 80.1765 119.562C79.6342 119.557 79.0921 119.553 78.55 119.55C75.94 119.54 73.5 121.5 74.71 124.31C75.04 125.08 75.67 126.02 76.39 126.47C77.9608 127.47 80.8204 127.457 83.0833 127.446C83.7159 127.443 84.3018 127.44 84.8 127.46C90.02 127.67 95.51 127.67 100.58 126.31C107.54 124.44 114.53 118.76 114.24 110.9C114.043 105.88 109.54 101.519 104.693 99.7384C104.801 96.3846 104.257 92.9359 103.53 89.71C102.55 85.37 100.62 81.09 97.78 77.6C95.6177 74.9453 92.7648 73.195 89.9408 71.4623C89.3084 71.0743 88.6775 70.6872 88.0561 70.291C89.045 69.365 89.9102 68.3748 90.6647 67.3317L96.03 69.36C96.21 69.43 96.4 69.46 96.58 69.46C97.21 69.46 97.8 69.08 98.04 68.46C98.34 67.66 97.94 66.77 97.14 66.46L92.3184 64.6396C92.8521 63.6071 93.3016 62.5378 93.677 61.4405L99.25 62.66C99.37 62.69 99.48 62.7 99.59 62.7C100.3 62.7 100.95 62.2 101.1 61.48C101.29 60.65 100.75 59.82 99.92 59.64L94.5092 58.4574C94.7352 57.4349 94.909 56.3961 95.038 55.3474L100.21 54.77C101.06 54.68 101.68 53.92 101.58 53.06C101.49 52.21 100.7 51.62 99.87 51.69L95.2969 52.2006L95.3018 52.0854C95.3036 52.0443 95.3052 52.0033 95.3068 51.9623C95.3079 51.9349 95.309 51.9074 95.31 51.88C95.4968 46.95 94.2771 41.7861 91.8867 37.0828C93.3574 30.1318 96.7708 11.2238 91.46 6.78999C87.22 3.25999 75.19 13.47 71.26 17.17C70.3658 18.0162 69.5454 18.7849 68.7957 19.4811C66.3913 18.8523 63.9177 18.4055 61.44 18.15C58.9653 17.8862 56.4562 17.8099 53.9773 17.925Z" fill="#F79329"/>
<path d="M45.82 48.62C45.48 51.83 42.89 54.19 40.04 53.89C37.19 53.59 35.14 50.75 35.48 47.53C35.82 44.31 38.41 41.95 41.26 42.25C44.11 42.56 46.15 45.4 45.82 48.62Z" fill="#2F2F2F"/>
<path d="M69.87 51.15C69.53 54.36 71.57 57.21 74.42 57.51C77.27 57.81 79.86 55.45 80.2 52.24C80.54 49.02 78.5 46.17 75.65 45.87C72.79 45.58 70.21 47.93 69.87 51.15Z" fill="#2F2F2F"/>
<path fill-rule="evenodd" clip-rule="evenodd" d="M53.61 60.68C52.58 59.88 51.97 58.7 52 57.63C52.03 56.6 52.38 55.61 53.55 55.02C54.2 54.7 54.99 54.51 55.78 54.45C56.08 54.42 56.93 54.38 57.74 54.47C58.54 54.55 59.3 54.76 59.58 54.85C60.35 55.07 61.08 55.41 61.64 55.87C62.67 56.69 62.8 57.75 62.61 58.75C62.42 59.81 61.58 60.83 60.4 61.4C59.8338 61.6682 59.1433 61.8298 58.4175 61.8891L58.392 62.1314C58.3937 62.2362 58.3924 62.3433 58.3912 62.4501V62.4502C58.3877 62.7556 58.3842 63.0586 58.45 63.3C59.14 65.7 61.96 66.64 64.02 65.31C64.83 64.79 65.56 64.52 66.39 65.19C67.71 66.26 65.89 68.07 64.87 68.6C63.57 69.25 61.93 69.44 60.38 69.16C59.08 68.92 57.81 68.38 56.85 67.46C56.708 67.327 56.5801 67.1841 56.4646 67.0332C56.3155 67.1714 56.1546 67.2979 55.98 67.41C54.86 68.12 53.51 68.43 52.19 68.42C50.62 68.41 49.04 67.93 47.89 67.05C46.98 66.35 45.53 64.23 47.02 63.42C47.26 63.29 47.53 63.22 47.8 63.19C48.23 63.13 48.58 63.24 48.94 63.51C49.1334 63.6534 49.3168 63.8346 49.5021 64.0177C49.8724 64.3835 50.2501 64.7567 50.73 64.85C52.7159 65.256 54.4602 64.4078 55.2137 62.6492L55.3298 61.5447C54.6788 61.3371 54.0814 61.0448 53.61 60.68Z" fill="#2F2F2F"/>
<path d="M36 12.52C35.27 14.42 33.8 19.89 34.72 23.78C34.99 24.94 36.47 25.46 37.52 24.96C39.71 23.91 43.13 22.06 44.41 21.42C46.59 20.35 47.34 19.02 46.16 17.39C44.66 15.31 40.92 11 38.71 10.58C37.45 10.34 36.48 11.29 36 12.52Z" fill="#FCD4B5"/>
<path d="M87.6 17.78C88.01 19.78 88.53 25.41 86.97 29.11C86.51 30.2 84.96 30.47 84.01 29.8C82.03 28.4 78.98 26 77.81 25.16C75.85 23.74 75.32 22.3 76.76 20.89C78.58 19.09 82.99 15.46 85.24 15.42C86.53 15.39 87.34 16.49 87.6 17.78Z" fill="#FCD4B5"/>
</svg>
